<svg width="29" height="35" viewBox="0 0 29 35" fill="none" xmlns="http://www.w3.org/2000/svg">
<path d="M19.597 12.5437C19.6673 11.9488 19.8735 11.419 20.196 10.918C20.3179 10.7291 20.0488 10.5109 19.9202 10.7007C19.8022 10.8737 19.6998 11.0547 19.6037 11.2369C19.5921 11.0767 19.5779 10.9161 19.5585 10.7571C19.7472 10.3542 19.8982 9.94861 19.7368 9.49686C19.7147 9.4374 19.6291 9.46315 19.6336 9.5226C19.6463 9.75511 19.5779 9.96603 19.4685 10.1675C19.4202 9.9009 19.362 9.63696 19.2947 9.37795C19.325 9.21664 19.325 9.03071 19.3526 8.88037C19.4102 8.56872 19.5047 8.26578 19.5959 7.96246C19.6463 7.7966 19.4124 7.68641 19.3459 7.8553C19.2487 8.09917 19.1519 8.34341 19.0563 8.58766C19.0424 8.54676 19.0301 8.50511 19.0152 8.46421C18.9614 8.31312 18.9027 8.16543 18.8388 8.02078V8.01699C18.8668 7.85113 18.918 7.68187 18.958 7.51714C19.0174 7.27062 19.1149 6.94459 18.8836 6.76169C18.8485 6.7348 18.788 6.76396 18.7973 6.81091C18.8466 7.07182 18.6889 7.28236 18.5824 7.5054C18.4726 7.30395 18.3556 7.10742 18.2285 6.92073C18.3018 6.5129 18.3735 6.0956 18.1639 5.751C18.1209 5.6817 18.0335 5.73926 18.0331 5.80402C18.0327 6.01305 17.952 6.23343 17.8668 6.43868C17.7211 6.26221 17.569 6.09446 17.4087 5.93466C17.4124 5.91232 17.4165 5.89035 17.4202 5.86839C17.4584 5.63891 17.5125 5.40338 17.4008 5.18602C17.3496 5.08453 17.2106 5.09476 17.1871 5.21063C17.1609 5.32992 17.1041 5.45829 17.0387 5.5912C16.8347 5.41625 16.6239 5.2485 16.4019 5.09741C16.4165 4.97396 16.4359 4.85165 16.4561 4.72972C16.4905 4.51463 16.5895 4.10755 16.424 3.92011C16.3709 3.86028 16.2659 3.90988 16.2973 3.99206C16.3463 4.11967 16.2084 4.33286 16.1546 4.44268C16.0936 4.56916 16.0376 4.69866 15.9841 4.83006C15.773 4.70472 15.5559 4.58847 15.3328 4.48433C15.3324 4.48168 15.3321 4.47979 15.3321 4.47638C15.3231 4.34688 15.3556 4.21093 15.3694 4.0818C15.3945 3.84702 15.325 3.62436 15.106 3.51644C15.0716 3.49978 15.0342 3.54636 15.06 3.57665C15.208 3.7516 15.0839 4.06022 15.0129 4.34195C14.7917 4.24956 14.5664 4.16511 14.3362 4.09278C14.3455 3.79249 14.4098 3.4888 14.3522 3.19343C14.3365 3.11353 14.2241 3.05862 14.171 3.14117C14.1654 3.15064 14.1616 3.15821 14.1587 3.16579C14.1575 3.16541 14.1568 3.16579 14.1564 3.16579C14.1415 3.19267 14.1258 3.22259 14.1105 3.25213C14.1022 3.26084 14.094 3.26992 14.0918 3.27295C14.0832 3.28204 14.0828 3.29302 14.0835 3.30363C13.98 3.50546 13.8859 3.7285 13.8485 3.95381C13.6433 3.90117 13.4367 3.85384 13.2274 3.81787C13.2454 3.68647 13.2749 3.55961 13.2782 3.42669C13.2846 3.23281 13.2939 2.98024 13.1164 2.85868C13.0645 2.82271 12.9797 2.85755 12.9916 2.92949C13.0271 3.13852 12.93 3.32597 12.8799 3.52174C12.8616 3.59028 12.8373 3.67094 12.8164 3.75576C12.5025 3.71525 12.1859 3.68912 11.869 3.68344C11.8541 3.54295 11.8227 3.39792 11.8257 3.27863C11.8324 3.01697 11.8646 2.76591 11.8477 2.50311C11.844 2.4482 11.7644 2.4376 11.745 2.48834C11.6415 2.75493 11.5439 3.0128 11.4819 3.29454C11.4584 3.40019 11.4356 3.54673 11.4386 3.68722C11.1347 3.69669 10.8298 3.72055 10.5286 3.76258V3.75198C10.529 3.74743 10.5245 3.74289 10.523 3.73797C10.6228 3.33165 10.8182 2.76666 10.3537 2.58339C10.3048 2.56369 10.2569 2.62125 10.2898 2.66518C10.5518 3.01886 10.1071 3.471 10.0477 3.82998C10.0469 3.83491 10.0488 3.83869 10.0473 3.84362C9.71994 3.90723 9.39595 3.98903 9.07794 4.09203C9.07009 4.02803 9.06635 3.96517 9.06448 3.9114C9.0615 3.83074 9.07233 3.74895 9.08354 3.66943C9.09027 3.63118 9.08653 3.55696 9.10185 3.53537C9.17211 3.43465 9.07158 3.25061 8.94453 3.32218C8.76179 3.42404 8.70312 3.63269 8.6665 3.82847C8.64072 3.96441 8.631 4.10717 8.64856 4.24501C8.26516 4.39232 7.89146 4.56802 7.53309 4.77516C5.53309 5.93087 4.00656 7.83599 3.14071 9.98345C2.82793 10.7601 2.74316 11.525 2.81635 12.2733C2.78683 12.4445 2.78458 12.6266 2.79131 12.8023C2.79654 12.9519 2.89893 13.2704 2.84512 13.393C2.73077 13.6532 2.74273 13.9694 2.74422 14.2485C2.74647 14.5639 3.25618 14.5654 3.28421 14.256C3.28982 14.2064 3.29094 14.1565 3.29243 14.1068C3.44153 14.4711 3.61717 14.8301 3.81 15.1823C3.79991 15.5019 3.79355 15.8219 3.79281 16.1415C3.79243 16.2407 3.87763 16.3247 3.9576 16.3649C4.03533 16.4043 4.08429 16.4062 4.16276 16.3675C4.28384 16.3073 4.33354 16.2138 4.33466 16.0794V16.0619C4.40977 16.1793 4.48787 16.2948 4.56784 16.4099C4.53458 16.5641 4.50058 16.7174 4.47853 16.8731C4.4378 17.159 4.39482 17.6221 4.65641 17.8103C4.75021 17.8777 4.8653 17.8235 4.89034 17.7141C4.9221 17.574 4.87166 17.4702 4.84587 17.3297C4.81186 17.148 4.79318 16.9704 4.79131 16.7848C4.79131 16.7651 4.79318 16.7466 4.79318 16.7273C5.00394 17.0139 5.23077 17.2873 5.46508 17.5535C5.43481 18.1723 4.94527 19.4874 5.68817 19.6601C5.76104 19.6764 5.83204 19.612 5.84251 19.542C5.87016 19.3644 5.78571 19.2227 5.75656 19.0512C5.72255 18.8585 5.76142 18.6555 5.7943 18.4658C5.82196 18.3079 5.85335 18.1519 5.87726 17.9955C6.44714 18.5741 7.07794 19.0841 7.77188 19.4977C7.76105 19.5124 7.74909 19.5253 7.74161 19.5454C7.53646 20.0608 7.37241 20.6329 7.44004 21.1941C7.46732 21.4179 7.76329 21.5118 7.90043 21.3244C7.93294 21.2805 7.93855 21.2418 7.94827 21.1983C7.94939 21.1998 7.95088 21.2006 7.95238 21.2017C7.952 21.1953 7.952 21.1892 7.95275 21.1824C7.9535 21.1771 7.95387 21.1718 7.95649 21.1661C7.97069 21.1203 7.96695 21.0794 7.95499 21.0411C7.96321 20.5833 7.96097 20.1475 8.09139 19.6946C8.09288 19.69 8.09139 19.6859 8.09251 19.6817C8.33392 19.8108 8.58541 19.9275 8.84289 20.0316C8.83541 20.0509 8.82383 20.0676 8.82084 20.0899C8.73676 20.631 8.57607 21.1438 8.59587 21.6989C8.6026 21.9144 8.93145 22.0166 9.04617 21.8273C9.08616 21.7625 9.11531 21.7034 9.12839 21.6277C9.13549 21.5857 9.12278 21.5444 9.10297 21.5084C9.1112 21.0654 9.23564 20.6379 9.30477 20.2016C9.58317 20.288 9.85783 20.3455 10.1288 20.3822C10.0824 20.4826 10.0458 20.5886 10.0152 20.6939C9.93818 20.9677 9.8967 21.2392 9.96994 21.5171C10.0114 21.6766 10.2558 21.7443 10.3732 21.6341C10.4651 21.5478 10.5323 21.3884 10.4692 21.2657C10.4483 20.9938 10.4206 20.6242 10.5918 20.4231C11.2207 20.4497 11.8328 20.3588 12.4389 20.2065C12.412 20.3894 12.3885 20.5731 12.4225 20.7564C12.4371 20.8355 12.4815 20.9185 12.5585 20.9525C12.5828 20.9771 12.6052 20.9995 12.6344 21.0199C12.7397 21.0945 12.9329 21.0215 12.9004 20.8688C12.8948 20.8476 12.8941 20.8355 12.8941 20.8276C12.8937 20.8385 12.8877 20.8575 12.8646 20.8829C12.878 20.8692 12.8855 20.8461 12.8937 20.8253C12.8941 20.8162 12.8956 20.817 12.8956 20.8226C12.9113 20.7825 12.9206 20.7374 12.9146 20.7007C12.9004 20.6148 12.9023 20.536 12.9124 20.4493C12.93 20.3042 12.9793 20.1766 13.0223 20.0411C13.3328 19.9422 13.6418 19.832 13.9501 19.7139C13.9969 19.7298 14.0454 19.7358 14.097 19.7332C14.0761 19.8335 14.0604 19.9335 14.0608 20.0384C14.0608 20.2213 14.1232 20.4156 14.2947 20.503C14.4681 20.5905 14.6744 20.4534 14.7185 20.2774C14.7338 20.216 14.6781 20.1494 14.6198 20.1437C14.5903 20.1407 14.5611 20.1437 14.5324 20.1448C14.5028 20.0645 14.498 19.9843 14.486 19.8934C14.4722 19.7926 14.4681 19.6862 14.4763 19.584C14.659 19.4935 14.8406 19.3988 15.0163 19.2924C15.0888 19.2633 15.1628 19.2345 15.236 19.2057C15.2132 19.2515 15.1923 19.2977 15.1714 19.3405C15.0705 19.5484 14.9927 19.8404 15.1661 20.0297C15.2562 20.1289 15.3769 20.1289 15.4692 20.0324C15.5387 19.9604 15.6127 19.8445 15.5402 19.7468C15.5182 19.7162 15.4883 19.7021 15.458 19.6942C15.4472 19.6052 15.4539 19.5143 15.4692 19.425C15.4909 19.3045 15.5503 19.1209 15.6415 19.0361C15.699 18.9823 15.6927 18.9069 15.6557 18.8585C16.4251 18.2901 17.1 17.5835 17.6859 16.8102C17.6411 17.1332 17.5776 17.4309 17.7614 17.7387C17.8317 17.8565 17.9845 17.8444 18.0566 17.7387C18.2913 17.3964 18.2782 16.9586 18.3033 16.5546C18.3197 16.2899 18.3373 16.04 18.3433 15.7889C18.347 15.7836 18.3511 15.7795 18.3545 15.7745C18.4543 15.6348 18.5428 15.4886 18.6362 15.3455C18.6101 15.5526 18.6138 15.7529 18.6557 15.9722C18.674 16.0707 18.8227 16.0642 18.8455 15.9722C18.9229 15.6556 18.9912 15.3584 19.0342 15.0335C19.0522 14.8964 19.0787 14.7407 19.0798 14.59C19.1534 14.4514 19.2338 14.3174 19.3018 14.172C19.3784 14.0073 19.4543 13.8331 19.532 13.6581C19.5929 13.3302 19.6807 13.0102 19.7835 12.694C19.7087 12.6773 19.631 12.6838 19.566 12.7213C19.5708 12.6834 19.5783 12.6474 19.5821 12.6103C19.5865 12.5868 19.5955 12.5641 19.597 12.5437ZM18.3059 12.8534C18.2095 12.7909 18.0645 12.7959 18.001 12.933C17.8313 13.3014 17.8238 13.7528 17.9371 14.1417C17.872 14.3075 17.8018 14.4715 17.7237 14.6328C17.6766 14.7298 17.6265 14.8237 17.5753 14.9149C17.5933 14.8169 17.6108 14.7184 17.6262 14.6203C17.6706 14.3378 17.2285 14.2731 17.193 14.5571C17.1381 14.9979 17.0645 15.4273 16.9311 15.8495C16.7525 16.0661 16.5637 16.2695 16.3679 16.4664C16.4027 16.1381 16.4363 15.8132 16.5824 15.5019C16.6239 15.4133 16.5002 15.3489 16.4408 15.4186C16.1131 15.8041 15.906 16.3762 15.853 16.881C15.85 16.9094 15.8548 16.9318 15.859 16.9552C15.6015 17.1919 15.3373 17.4229 15.0738 17.6573C15.0959 17.3642 15.1702 17.0757 15.3149 16.8185C15.4591 16.5656 15.0069 16.3543 14.8941 16.6383C14.7304 17.056 14.5533 17.6016 14.6134 18.0791C14.3048 18.37 14.0043 18.6722 13.7256 19.0054C13.7162 19.0171 13.7136 19.0304 13.705 19.0417C12.6841 19.2716 11.662 19.4522 10.5772 19.3772C8.51441 19.2352 6.94565 17.649 5.73451 16.1165C5.26067 15.5174 4.78496 14.8343 4.4292 14.1019C4.43967 14.0091 4.44714 13.916 4.46022 13.8228C4.48675 13.6252 4.32905 13.518 4.17733 13.5199C3.8881 12.7576 3.75431 11.9548 3.89968 11.1479C4.25693 9.15946 5.80589 7.38536 7.32046 6.18231C8.91613 4.91527 11.1755 4.70397 13.1146 4.94821C15.501 5.24736 17.0563 6.68103 17.9262 8.89666C18.1112 9.36848 18.2454 9.8547 18.3276 10.347C18.2992 10.4795 18.2876 10.6143 18.307 10.7499C18.3175 10.8188 18.3522 10.8802 18.3989 10.9286C18.4535 11.5728 18.4217 12.221 18.3059 12.8534Z" fill="#353F39"/>
<path d="M24.9847 25.1819C24.5751 24.631 21.6547 20.3788 20.1917 20.3773C19.929 20.3429 19.6394 20.3694 19.4197 20.5068C19.3296 20.2955 19.1719 20.1054 19.0179 19.935C18.9727 19.885 18.9324 19.8282 18.8931 19.7695C18.8845 19.7366 18.8748 19.704 18.8696 19.6688C19.3117 19.3079 19.7377 18.9436 20.1431 18.5968C22.3733 16.6837 23.6551 13.3184 22.8928 10.4454C22.5071 8.99396 22.2138 7.32211 21.4141 6.04219C20.5714 4.69259 19.5135 3.67168 18.2179 2.79089C15.5549 0.980441 12.6517 -0.393771 9.37631 0.315109C8.26158 0.556704 7.27653 1.12207 6.35089 1.77452C4.98318 2.24862 3.75635 3.33542 2.76046 4.64564C2.17338 5.21024 1.64685 5.82029 1.29371 6.4894C0.900588 7.23464 0.69431 7.98934 0.584071 8.77244C0.487658 9.06364 0.405072 9.34764 0.339302 9.61953C-0.259353 12.0805 -0.0848389 17.0465 2.22309 19.0538C2.41666 19.3337 2.66666 19.581 2.94431 19.7949C2.99924 19.8369 3.05007 19.8794 3.10313 19.9214C3.1476 19.9676 3.19805 20.0066 3.24439 20.0501C3.60874 20.4625 4.01718 20.8298 4.47795 21.1127C4.63938 21.2714 4.81016 21.4005 4.9985 21.4713C6.49589 22.7414 8.25747 23.5286 10.4895 23.4468C12.0321 23.3904 13.6487 22.6202 15.0751 22.0753C15.1121 22.0617 15.1476 22.0423 15.1854 22.0272C15.287 22.1828 15.407 22.3233 15.5273 22.4631C15.5688 22.563 15.6129 22.6615 15.6678 22.7558C15.7272 22.8584 15.7892 22.9682 15.8543 23.0776C15.7605 23.273 15.6966 23.5605 15.6715 23.8229C15.5916 24.0872 15.6536 24.4034 15.7915 24.7302C15.9731 25.7606 16.846 26.7103 17.6028 27.6547C18.3139 28.7328 19.0706 29.7825 19.9593 30.6962C20.8446 31.6069 21.957 34.272 23.5381 33.9842C24.7874 33.7563 26.8162 32.4987 27.472 31.1563C29.4458 30.054 25.6159 26.0321 24.9847 25.1819ZM22.7257 23.7195C22.889 23.9141 23.0493 24.1103 23.2104 24.3064C23.0845 24.7821 23.0456 25.2346 23.0523 25.7295C23.0647 26.6205 22.8419 27.5456 22.7126 28.4249C22.589 29.2724 22.3162 30.1134 22.0378 30.9227C21.9395 31.2067 21.8946 31.4202 21.9574 31.652C21.7836 31.438 21.6091 31.2248 21.4301 31.0181C21.475 30.9745 21.5138 30.9189 21.5321 30.8416C21.5807 30.6371 21.5893 30.5837 21.5792 30.4656C21.7141 29.3727 21.9238 28.2981 22.0916 27.2075C22.1824 26.6167 22.349 26.0321 22.4395 25.4383C22.5265 24.8718 22.5153 24.2572 22.7257 23.7195ZM21.8558 22.6963C22.0404 22.908 22.2194 23.1246 22.4014 23.3374C22.395 23.3465 22.3864 23.3526 22.3812 23.3624C21.864 24.35 21.9369 25.7136 21.6805 26.8034C21.4014 27.9925 21.0265 29.2315 20.9193 30.4588C20.8875 30.4251 20.8565 30.3876 20.8244 30.355C20.66 30.1861 20.5008 30.0119 20.3431 29.834C20.4421 29.8165 20.5333 29.7609 20.5751 29.6575L20.5762 29.6583C20.9869 28.5514 21.0434 27.301 21.2552 26.1415C21.4776 24.9331 21.633 23.7494 21.7287 22.5369C21.7765 22.6001 21.821 22.6566 21.8558 22.6963ZM21.3659 22.0651C21.0957 24.5208 20.5609 27.0072 19.9828 29.4163C19.7926 29.1887 19.6061 28.9577 19.4238 28.7225C19.5804 28.8119 19.775 28.6851 19.7586 28.4946C19.7608 28.4957 19.7635 28.4961 19.7657 28.4969C19.6936 28.0106 19.8621 27.5884 19.9582 27.1208C20.102 26.4187 20.2055 25.7113 20.3673 25.0115C20.5325 24.2928 20.5011 23.6884 20.5512 22.95C20.5733 22.624 20.6943 21.889 20.855 21.4774C21.0359 21.6569 21.21 21.8666 21.3659 22.0651ZM19.5206 21.8155C19.6435 21.5989 19.7444 21.3698 19.8307 21.1483C19.981 21.1339 20.1327 21.1244 20.2795 21.0941C20.293 21.0907 20.3057 21.0835 20.3188 21.0786C20.4193 21.1233 20.5213 21.1862 20.6237 21.268C19.9227 22.276 20.0792 23.7986 19.7777 24.9248C19.5706 25.6981 19.4197 26.477 19.2579 27.2597C19.1659 27.705 19.0336 28.0815 19.2164 28.4522C19.1476 28.3617 19.083 28.2689 19.0153 28.1776C19.0131 28.1746 19.0108 28.1716 19.009 28.1697C18.932 28.0568 18.8453 27.941 18.7556 27.824C18.6708 27.7062 18.5815 27.5911 18.4981 27.4729C18.5052 27.4589 18.5153 27.4491 18.5194 27.4332C19.1102 26.3433 19.1215 24.9161 19.2571 23.7066C19.3191 23.1462 19.6943 22.3911 19.5206 21.8155ZM17.1192 24.7972C17.1114 24.3432 17.3333 23.8691 17.114 23.4472C17.2993 23.3957 17.4645 23.303 17.6297 23.192C17.6663 23.1806 17.7018 23.1723 17.7392 23.1587C17.7351 23.1704 17.7287 23.1791 17.7268 23.192C17.6521 23.6665 17.5385 24.1205 17.5576 24.6048C17.5747 25.0774 17.5022 25.5462 17.4757 26.0184C17.2825 25.7602 17.074 25.4818 16.8961 25.1899C16.9806 25.2005 17.0729 25.1585 17.1173 25.0702C17.1372 25.0301 17.1502 24.985 17.1656 24.9426C17.1869 24.8847 17.1629 24.8283 17.1192 24.7972ZM17.1301 22.5706C17.0437 22.602 16.9555 22.6316 16.867 22.6607C16.824 22.6013 16.7676 22.5558 16.7033 22.5252C16.5691 22.2995 16.3636 22.1287 16.2466 21.8931C16.1947 21.7883 16.1218 21.7034 16.0422 21.625C16.7601 21.2437 17.457 20.7692 18.1241 20.2588C18.1999 20.45 18.3274 20.6216 18.5052 20.7912C18.5228 20.8086 18.5374 20.8223 18.5534 20.8378C18.6177 20.9393 18.6835 21.037 18.7698 21.1138C18.7874 21.2024 18.7295 21.2952 18.5721 21.4505C18.3965 21.6235 18.1906 21.7674 17.9933 21.9121C17.7145 22.1169 17.4298 22.3813 17.1301 22.5706ZM16.565 24.2856C16.6046 24.116 16.6013 23.9327 16.6188 23.7608C16.6207 23.7464 16.6218 23.735 16.623 23.7214C16.6446 23.7195 16.6663 23.7225 16.6865 23.7168C16.7493 23.6998 16.7997 23.6775 16.8438 23.6517C16.8546 23.852 16.7784 24.0789 16.7362 24.2587C16.6973 24.4257 16.6745 24.5844 16.6812 24.7438C16.6297 24.5923 16.5908 24.4397 16.565 24.2856ZM19.1693 22.3044C19.0617 22.847 18.7818 23.4677 18.7141 23.9209C18.5647 24.9396 18.3449 25.9029 18.0897 26.8875C18.034 26.8061 17.9776 26.7247 17.923 26.6448C18.0366 26.4342 18.1155 26.1779 17.9772 25.9662C17.9716 25.9571 17.9619 25.9556 17.9552 25.9499C17.963 25.8151 17.9712 25.681 17.9851 25.5458C18.0056 25.3414 18.0972 25.0725 18.0662 24.8699C17.9795 24.308 18.1039 23.8111 18.1883 23.2598C18.2074 23.1382 18.1405 23.061 18.0549 23.025C18.2825 22.9159 18.503 22.7883 18.6969 22.6853C18.8771 22.5888 19.0321 22.4559 19.1693 22.3044ZM13.7754 21.5042C12.3393 22.0787 10.6618 22.5581 9.12182 22.3358C7.56988 22.1124 6.33333 21.3804 5.29895 20.389C5.11883 20.1459 4.90059 19.924 4.65807 19.7192C4.50859 19.5476 4.36173 19.3715 4.22047 19.1902C4.15508 19.2318 4.06838 19.2394 4.00709 19.1784C3.95627 19.1284 3.90732 19.0735 3.85799 19.0201C3.85425 19.0205 3.85089 19.0201 3.84678 19.0205C3.71786 18.8921 3.5908 18.7645 3.46898 18.635C2.86173 17.9951 2.46524 16.9526 2.05007 16.1736C1.97346 16.0297 1.89498 15.8889 1.81726 15.7473C1.79334 15.628 1.76905 15.5083 1.75298 15.389C1.71187 15.311 1.66666 15.2334 1.63116 15.1542C1.62518 15.0993 1.61883 15.0456 1.61247 14.9914C1.36471 14.2803 1.2627 13.5271 1.38863 12.8091C1.31912 11.8583 1.30941 10.9063 1.45365 9.9308C1.74775 7.93481 3.05567 5.78393 4.63789 4.04733C6.46487 2.48113 8.69095 1.20992 10.907 1.05277C12.1506 0.964915 14.0344 1.41289 15.1192 2.07065C16.2324 2.74582 17.6274 3.31421 18.528 4.29309C18.8995 4.69827 19.3834 4.92548 19.7231 5.38632C20.1775 6.00091 20.682 6.589 20.9944 7.29636C21.543 8.53728 21.9331 10.3061 22.1499 11.6288C22.6786 14.8547 20.0232 17.5248 17.7366 19.2436C16.4791 20.1895 15.2336 20.9226 13.7754 21.5042ZM24.5097 31.5815C24.4182 32.0117 24.2833 32.3718 24.3087 32.8039C23.7044 33.1201 23.1685 33.239 22.941 32.9304C22.9208 32.9031 22.8987 32.8751 22.8782 32.8482C22.8984 32.7944 22.8905 32.7286 22.8505 32.6854C22.6921 32.5195 22.534 32.3529 22.3756 32.1848C22.3367 32.1344 22.3008 32.0852 22.2616 32.0348C22.4047 32.0424 22.5624 31.9345 22.5871 31.7838C22.6151 31.6115 22.6245 31.566 22.6114 31.4092C22.6099 31.3945 22.6058 31.3816 22.6013 31.3695C22.6476 31.0101 22.7818 30.6436 22.8718 30.3062C23.0635 29.5897 23.2156 28.874 23.3165 28.139C23.3946 27.574 23.4735 27.0087 23.5512 26.4433C23.6252 25.9048 23.5774 25.3747 23.6413 24.8434C23.756 24.9877 23.8711 25.1304 23.9839 25.2762C24.0677 25.3842 24.1592 25.4951 24.2526 25.6068C23.9963 26.9011 24.0355 28.256 23.6502 29.5219C23.4944 30.0328 23.4275 30.5803 23.3412 31.1059C23.2545 31.6372 23.0329 31.961 23.1394 32.5014C23.2123 32.8664 23.7026 32.8028 23.7003 32.4362C23.6996 32.2885 23.7014 32.2314 23.6895 32.1693C23.6999 31.7099 23.8685 31.2407 23.926 30.7867C24.0023 30.1744 24.1764 29.5935 24.3027 28.9925C24.5026 28.0398 24.5325 27.0624 24.6779 26.1006C24.8801 26.332 25.0927 26.5713 25.3038 26.8167C25.3023 26.819 25.3016 26.8193 25.3008 26.8208C24.978 27.8175 24.9739 28.8956 24.7496 29.9222C24.6293 30.4739 24.6274 31.0298 24.5097 31.5815ZM26.5549 30.9855C26.4066 31.1714 26.2082 31.3797 25.9813 31.591C26.015 31.3623 26.0654 31.1374 26.0972 30.9083C26.1981 30.1827 26.3715 29.4761 26.4896 28.7513C26.531 28.4878 26.1248 28.4287 26.0856 28.6923C26.0079 29.2016 25.8774 29.6988 25.7769 30.2024C25.7078 30.5485 25.7048 30.8961 25.636 31.2438C25.6177 31.3365 25.5374 31.7061 25.5736 31.947C25.3629 32.1196 25.139 32.2878 24.9141 32.4396C25.1181 31.9235 25.1899 31.2525 25.1906 30.7966C25.191 30.1286 25.4174 29.4477 25.5426 28.7964C25.6398 28.289 25.6117 27.8092 25.7123 27.3124C26.1002 27.7993 26.4484 28.3102 26.6857 28.8373C26.5785 29.219 26.5591 29.6503 26.5613 30.029C26.5632 30.3728 26.6487 30.639 26.5549 30.9855Z" fill="#353F39"/>
<path d="M6.04124 9.07197C5.16156 10.2027 5.21687 11.7609 5.69221 13.1651C5.64138 13.1973 5.60289 13.2488 5.59542 13.3135C5.44407 14.7138 7.0588 16.9484 8.45155 15.5276C9.16157 14.804 9.26732 13.7736 9.3316 12.7993C9.37495 12.1411 9.33459 11.48 9.37158 10.8226C9.39812 10.347 9.56814 9.89256 9.5745 9.4124C9.60365 7.08279 7.00835 7.82802 6.04124 9.07197ZM8.71725 9.39952C8.71052 9.66422 8.63728 9.93648 8.58571 10.1947C8.35439 11.3474 8.50462 12.5437 8.3245 13.7081C8.2449 14.2208 8.08197 14.7835 7.58757 15.035C7.42726 15.1152 7.26059 15.0611 7.0958 14.9297C6.47696 13.7085 6.07823 12.3202 6.18212 10.9498C6.23817 10.1989 6.61373 9.48321 7.22397 9.05872C7.53488 8.84136 8.74789 8.22033 8.71725 9.39952Z" fill="#353F39"/>
<path d="M6.31826 18.9838C6.17775 19.2886 5.82237 20.2092 6.34516 20.3368C6.42065 20.3557 6.51033 20.2985 6.53687 20.2277C6.56713 20.1467 6.56377 20.0819 6.54882 19.999C6.53313 19.9104 6.54695 19.8222 6.5634 19.7343C6.59927 19.5404 6.68597 19.353 6.77491 19.1792C6.92139 18.894 6.45465 18.6884 6.31826 18.9838Z" fill="#353F39"/>
<path d="M11.5073 20.4129C11.4423 20.3606 11.3672 20.4326 11.3873 20.5042C11.4225 20.6287 11.3149 20.7757 11.2644 20.8836C11.1919 21.037 11.1717 21.2161 11.2853 21.3532C11.4337 21.5315 11.6751 21.374 11.6213 21.1646C11.5533 20.8987 11.77 20.6231 11.5073 20.4129Z" fill="#353F39"/>
<path d="M16.593 18.2204C16.4913 18.3014 16.4644 18.4252 16.445 18.5491C16.4215 18.7055 16.3972 18.8637 16.4502 19.0141C16.4797 19.097 16.6083 19.1239 16.6599 19.0447C16.7279 18.938 16.732 18.8596 16.7212 18.7346C16.7133 18.6331 16.6685 18.4574 16.7428 18.3734C16.8221 18.2806 16.6875 18.1454 16.593 18.2204Z" fill="#353F39"/>
</svg>
